<?xml version="1.0" standalone="no"?>
<!DOCTYPE svg PUBLIC "-//W3C//DTD SVG 20010904//EN"
 "http://www.w3.org/TR/2001/REC-SVG-20010904/DTD/svg10.dtd">
<svg version="1.0" xmlns="http://www.w3.org/2000/svg"
 width="256.000000pt" height="256.000000pt" viewBox="0 0 256.000000 256.000000"
 preserveAspectRatio="xMidYMid meet">

<g transform="translate(0.000000,256.000000) scale(0.100000,-0.100000)"
fill="#000000" stroke="none">
<path d="M1075 2404 c-548 -98 -945 -572 -945 -1129 0 -110 21 -256 49 -338
l18 -52 869 2 c478 2 963 -1 1077 -5 l209 -7 -56 -110 c-67 -132 -128 -216
-234 -316 -175 -168 -380 -268 -627 -306 -233 -35 -516 16 -725 133 -25 14
-36 18 -25 9 34 -29 215 -114 284 -135 472 -140 963 24 1256 420 57 78 138
239 165 329 119 403 14 847 -275 1159 -257 278 -664 413 -1040 346z m310 -55
c239 -29 452 -130 625 -295 62 -59 88 -94 115 -148 18 -39 37 -81 40 -93 l6
-23 -891 0 -891 0 6 23 c3 12 22 56 42 97 101 211 420 404 723 439 108 12 125
12 225 0z m805 -698 c0 -5 -37 -12 -82 -15 -92 -8 -213 -27 -358 -56 -52 -11
-104 -20 -116 -20 -11 0 -24 -3 -28 -7 -41 -41 -611 -41 -652 0 -4 4 -17 7
-28 7 -12 0 -64 9 -116 20 -145 29 -266 48 -357 56 -46 3 -83 10 -83 15 0 5
380 9 910 9 530 0 910 -4 910 -9z"/>
</g>
</svg>
