<?xml version="1.0" standalone="no"?>
<!DOCTYPE svg PUBLIC "-//W3C//DTD SVG 20010904//EN"
 "http://www.w3.org/TR/2001/REC-SVG-20010904/DTD/svg10.dtd">
<svg version="1.0" xmlns="http://www.w3.org/2000/svg"
 width="813.000000pt" height="811.000000pt" viewBox="0 0 813.000000 811.000000"
 preserveAspectRatio="xMidYMid meet">

<g transform="translate(0.000000,811.000000) scale(0.100000,-0.100000)"
fill="#000000" stroke="none">
<path d="M3760 8081 c-47 -5 -118 -11 -157 -16 l-73 -7 0 -402 0 -402 53 7
c28 4 149 13 269 20 232 13 521 3 738 -26 57 -7 105 -13 106 -12 1 1 4 180 8
399 l7 396 -28 6 c-155 33 -719 55 -923 37z"/>
<path d="M3035 7959 c-686 -180 -1322 -546 -1826 -1051 -148 -149 -209 -220
-193 -225 14 -5 147 -86 1208 -740 l911 -562 3 816 c1 449 1 818 -1 819 -2 2
-81 4 -175 5 -99 0 -172 4 -172 10 0 11 -22 7 -32 -6 -5 -6 -8 -5 -8 3 0 6 -5
12 -11 12 -5 0 -7 -4 -4 -10 4 -6 -2 -7 -17 -1 -13 4 -22 12 -21 17 2 11 188
73 334 111 l106 27 7 399 c4 219 6 400 4 402 -1 1 -52 -11 -113 -26z"/>
<path d="M5090 7561 l0 -400 23 -6 c128 -36 315 -100 306 -105 -7 -5 -6 -9 5
-13 8 -3 16 -1 18 5 3 8 10 8 24 -1 14 -10 15 -11 2 -7 -10 3 -20 1 -24 -5 -7
-12 -46 -8 -56 6 -5 6 -8 6 -8 -1 0 -7 -46 -11 -142 -12 l-143 -1 -3 -820 c-1
-452 0 -821 3 -821 2 0 406 247 897 548 491 302 955 586 1031 632 75 46 136
87 135 91 -8 21 -233 260 -321 342 -516 475 -1068 783 -1729 964 -17 4 -18
-20 -18 -396z"/>
<path d="M4680 6736 c8 -11 10 -17 3 -13 -15 9 -1110 10 -1125 1 -7 -5 -8 -2
-3 6 5 8 3 11 -6 8 -12 -4 -14 -165 -17 -1027 l-2 -1023 -1724 4 -1724 3 -11
-75 c-38 -269 -48 -690 -23 -940 11 -110 43 -329 57 -400 l5 -25 1710 3 1710
4 0 -1601 c0 -1515 1 -1600 18 -1605 53 -15 308 -30 522 -29 229 0 361 8 555
34 l80 11 0 1592 0 1591 1657 0 1658 0 10 50 c48 239 65 441 64 765 -1 271
-12 447 -40 595 l-5 30 -1672 0 -1672 0 -3 1016 c-2 954 -3 1017 -20 1030 -16
13 -16 13 -2 -5z"/>
<path d="M7218 6337 c-64 -39 -516 -317 -1003 -617 l-887 -545 437 -3 437 -2
581 356 c320 197 633 388 694 426 l113 69 -17 32 c-47 91 -220 357 -232 357
-4 0 -59 -33 -123 -73z"/>
<path d="M609 6143 c-78 -130 -171 -311 -165 -321 3 -5 31 -24 63 -44 32 -19
268 -164 524 -322 l466 -286 436 2 437 3 -568 350 c-856 527 -1095 676 -1113
691 -8 8 -18 14 -21 14 -3 0 -30 -39 -59 -87z"/>
<path d="M262 5408 c-46 -132 -75 -228 -69 -234 2 -2 154 -3 338 -2 l333 3
-276 173 c-153 94 -279 172 -281 172 -3 0 -23 -51 -45 -112z"/>
<path d="M7603 5321 l-231 -146 280 -3 c155 -1 284 0 287 3 7 7 -88 295 -97
294 -4 -1 -111 -67 -239 -148z"/>
<path d="M245 2758 c11 -36 75 -206 95 -254 l19 -44 43 28 c24 16 133 84 243
152 110 68 204 127 209 132 6 4 -131 8 -303 8 l-312 0 6 -22z"/>
<path d="M1815 2564 c-192 -119 -523 -322 -735 -451 -212 -129 -389 -239 -394
-243 -18 -18 255 -387 277 -374 7 4 93 58 192 119 99 62 556 343 1015 625 459
282 844 519 855 526 16 12 -47 14 -420 14 l-440 0 -350 -216z"/>
<path d="M6016 2771 c5 -5 250 -156 544 -336 294 -180 618 -379 719 -442 100
-63 184 -113 186 -111 28 29 231 395 224 403 -2 2 -114 70 -249 152 -135 83
-316 193 -403 246 l-158 97 -436 0 c-249 0 -433 -4 -427 -9z"/>
<path d="M7371 2777 c14 -12 418 -257 422 -257 6 0 83 195 93 235 l6 25 -263
0 c-144 0 -260 -1 -258 -3z"/>
<path d="M2520 2194 c-333 -205 -787 -485 -1010 -621 -223 -135 -407 -248
-410 -251 -3 -2 63 -70 146 -152 413 -402 906 -712 1439 -905 134 -48 424
-135 452 -135 15 0 16 26 10 263 -4 144 -7 693 -7 1220 0 526 -3 957 -7 956
-5 0 -280 -169 -613 -375z"/>
<path d="M5090 1362 l0 -1210 113 33 c549 164 1030 421 1462 784 93 78 405
379 405 391 0 4 -73 51 -162 106 -90 54 -530 323 -978 597 -448 275 -820 502
-827 504 -11 4 -13 -225 -13 -1205z"/>
</g>
</svg>
